<mxfile host="Electron" agent="Mozilla/5.0 (Windows NT 10.0; Win64; x64) AppleWebKit/537.36 (KHTML, like Gecko) draw.io/26.0.15 Chrome/132.0.6834.196 Electron/34.2.0 Safari/537.36" version="26.0.15">
  <diagram name="Page-1" id="dm37W7zf4Ys7U2PAEAMq">
    <mxGraphModel dx="1104" dy="526" grid="1" gridSize="10" guides="1" tooltips="1" connect="1" arrows="1" fold="1" page="1" pageScale="1" pageWidth="850" pageHeight="1100" math="0" shadow="0">
      <root>
        <mxCell id="0" />
        <mxCell id="1" parent="0" />
        <mxCell id="FD_S_nRpu3haUwPYUbTP-1" value="&lt;span style=&quot;white-space: pre;&quot;&gt;&#x9;&lt;/span&gt;Laporan Hasil VIKOR" style="swimlane;whiteSpace=wrap;html=1;align=left;fontStyle=0" vertex="1" parent="1">
          <mxGeometry x="180" y="380" width="580" height="650" as="geometry" />
        </mxCell>
        <mxCell id="FD_S_nRpu3haUwPYUbTP-2" value="&lt;div&gt;alamat , Pamulang | Tlp : (00) ......&lt;/div&gt;" style="endArrow=none;html=1;endSize=12;startArrow=none;startSize=14;startFill=0;edgeStyle=orthogonalEdgeStyle;align=center;verticalAlign=bottom;endFill=0;rounded=0;" edge="1" parent="FD_S_nRpu3haUwPYUbTP-1">
          <mxGeometry y="3" relative="1" as="geometry">
            <mxPoint x="105" y="160" as="sourcePoint" />
            <mxPoint x="445" y="160" as="targetPoint" />
          </mxGeometry>
        </mxCell>
        <mxCell id="FD_S_nRpu3haUwPYUbTP-3" value="&lt;b&gt;&lt;font style=&quot;font-size: 18px;&quot;&gt;SMK PRIMA UNGGUL&lt;/font&gt;&lt;/b&gt;" style="text;html=1;align=center;verticalAlign=middle;whiteSpace=wrap;rounded=0;" vertex="1" parent="FD_S_nRpu3haUwPYUbTP-1">
          <mxGeometry x="165" y="80" width="210" height="40" as="geometry" />
        </mxCell>
        <mxCell id="FD_S_nRpu3haUwPYUbTP-4" value="&lt;b&gt;&lt;font style=&quot;font-size: 18px;&quot;&gt;Laporan Hasil Akhir Metode VIKOR&lt;/font&gt;&lt;/b&gt;" style="text;html=1;align=center;verticalAlign=middle;whiteSpace=wrap;rounded=0;" vertex="1" parent="FD_S_nRpu3haUwPYUbTP-1">
          <mxGeometry x="120" y="180" width="310" height="40" as="geometry" />
        </mxCell>
        <mxCell id="FD_S_nRpu3haUwPYUbTP-5" value="|&lt;span style=&quot;white-space: pre;&quot;&gt;&#x9;&lt;/span&gt;Alternatif &lt;span style=&quot;white-space: pre;&quot;&gt;&#x9;&lt;/span&gt;&lt;span style=&quot;white-space: pre;&quot;&gt;&#x9;&lt;/span&gt;|&lt;span style=&quot;white-space: pre;&quot;&gt;&#x9;&lt;/span&gt;Nilai S &lt;span style=&quot;white-space: pre;&quot;&gt;&#x9;&lt;/span&gt;|&lt;span style=&quot;white-space: pre;&quot;&gt;&#x9;&lt;/span&gt;Nilai R &lt;span style=&quot;white-space: pre;&quot;&gt;&#x9;&lt;/span&gt;|&lt;span style=&quot;white-space: pre;&quot;&gt;&#x9;&lt;/span&gt;Nilai Q &lt;span style=&quot;white-space: pre;&quot;&gt;&#x9;&lt;/span&gt;|&lt;span style=&quot;white-space: pre;&quot;&gt;&#x9;&lt;/span&gt;Ranking&lt;span style=&quot;white-space: pre;&quot;&gt;&#x9;&lt;/span&gt;|&lt;span style=&quot;white-space: pre;&quot;&gt;&#x9;&lt;/span&gt; Status &lt;span style=&quot;white-space: pre;&quot;&gt;&#x9;&lt;/span&gt;|" style="text;html=1;align=center;verticalAlign=middle;whiteSpace=wrap;rounded=0;" vertex="1" parent="FD_S_nRpu3haUwPYUbTP-1">
          <mxGeometry x="10" y="215" width="530" height="40" as="geometry" />
        </mxCell>
        <mxCell id="FD_S_nRpu3haUwPYUbTP-6" value="&lt;b&gt;Catatan&lt;/b&gt;&lt;span style=&quot;white-space: pre;&quot;&gt;&#x9;&lt;/span&gt;: Peserta dengan status Lulus dinyatakan berhak menerima beasiswa dari SMK Prima &lt;span style=&quot;white-space: pre;&quot;&gt;&#x9;&lt;/span&gt;&lt;span style=&quot;white-space: pre;&quot;&gt;&#x9;&lt;/span&gt;&amp;nbsp; Unggul." style="text;html=1;align=left;verticalAlign=middle;whiteSpace=wrap;rounded=0;" vertex="1" parent="FD_S_nRpu3haUwPYUbTP-1">
          <mxGeometry x="20" y="400" width="520" height="30" as="geometry" />
        </mxCell>
        <mxCell id="FD_S_nRpu3haUwPYUbTP-7" value="...., .. , .. 2025" style="text;html=1;align=center;verticalAlign=middle;whiteSpace=wrap;rounded=0;fontStyle=0" vertex="1" parent="FD_S_nRpu3haUwPYUbTP-1">
          <mxGeometry x="380" y="450" width="130" height="30" as="geometry" />
        </mxCell>
        <mxCell id="FD_S_nRpu3haUwPYUbTP-8" value="Kepala Sekolah" style="text;html=1;align=center;verticalAlign=middle;whiteSpace=wrap;rounded=0;fontStyle=1" vertex="1" parent="FD_S_nRpu3haUwPYUbTP-1">
          <mxGeometry x="375" y="480" width="130" height="30" as="geometry" />
        </mxCell>
        <mxCell id="FD_S_nRpu3haUwPYUbTP-9" value="&lt;span style=&quot;font-weight: normal;&quot;&gt;Nama&lt;/span&gt;" style="text;html=1;align=center;verticalAlign=middle;whiteSpace=wrap;rounded=0;fontStyle=1" vertex="1" parent="FD_S_nRpu3haUwPYUbTP-1">
          <mxGeometry x="340" y="570" width="130" height="30" as="geometry" />
        </mxCell>
        <mxCell id="FD_S_nRpu3haUwPYUbTP-10" value="" style="line;strokeWidth=2;html=1;" vertex="1" parent="FD_S_nRpu3haUwPYUbTP-1">
          <mxGeometry x="382.5" y="590" width="115" height="10" as="geometry" />
        </mxCell>
        <mxCell id="FD_S_nRpu3haUwPYUbTP-11" value="&lt;span style=&quot;font-weight: normal;&quot;&gt;NIP :&lt;/span&gt;" style="text;html=1;align=center;verticalAlign=middle;whiteSpace=wrap;rounded=0;fontStyle=1" vertex="1" parent="FD_S_nRpu3haUwPYUbTP-1">
          <mxGeometry x="338" y="590" width="130" height="30" as="geometry" />
        </mxCell>
        <mxCell id="FD_S_nRpu3haUwPYUbTP-12" value="LOGO" style="whiteSpace=wrap;html=1;aspect=fixed;" vertex="1" parent="FD_S_nRpu3haUwPYUbTP-1">
          <mxGeometry x="30" y="50" width="80" height="80" as="geometry" />
        </mxCell>
      </root>
    </mxGraphModel>
  </diagram>
</mxfile>
